HIERARCHY
ROOT Hip
{
   OFFSET 0.00000 0.00000 0.00000
   CHANNELS 6 Xposition Yposition Zposition Zrotation Yrotation Xrotation
   JOINT Head
   {
      OFFSET 0.000000 23.756001 0.000000
      CHANNELS 3 Zrotation Yrotation Xrotation
      End Site
      {
         OFFSET 0.000000 14.154000 0.000000
      }
      JOINT LeftShoulder
      {
         OFFSET 7.854600 0.000000 0.000000
         CHANNELS 3 Zrotation Yrotation Xrotation
         JOINT LeftHand
         {
            OFFSET 0.000000 -11.478000 0.000000
            CHANNELS 3 Zrotation Yrotation Xrotation
            End Site
            {
               OFFSET 0.000000 -12.571000 0.000000
            }
         }
      }
      JOINT RightShoulder
      {
         OFFSET -8.371200 0.000000 0.000000
         CHANNELS 3 Zrotation Yrotation Xrotation
         JOINT RightHand
         {
            OFFSET 0.000000 -17.191250 0.000000
            CHANNELS 3 Zrotation Yrotation Xrotation
            End Site
            {
               OFFSET 0.000000 -9.420800 0.000000
            }
         }
      }
   }
   JOINT LeftHip
   {
      OFFSET 8.311300 0.000000 0.000000
      CHANNELS 3 Zrotation Yrotation Xrotation
      JOINT LeftKnee
      {
         OFFSET 0.000000 -23.427999 0.000000
         CHANNELS 3 Zrotation Yrotation Xrotation
         JOINT LeftFoot
         {
            OFFSET 0.000000 -17.863000 0.000000
            CHANNELS 3 Zrotation Yrotation Xrotation
            End Site
            {
               OFFSET 0.000000 0.000000 11.641000
            }
         }
      }
   }
   JOINT RightHip
   {
      OFFSET -8.311300 0.000000 0.000000
      CHANNELS 3 Zrotation Yrotation Xrotation
      JOINT RightKnee
      {
         OFFSET 0.000000 -21.203000 0.000000
         CHANNELS 3 Zrotation Yrotation Xrotation
         JOINT RightFoot
         {
            OFFSET 0.000000 -18.184000 0.000000
            CHANNELS 3 Zrotation Yrotation Xrotation
            End Site
            {
               OFFSET 0.000000 0.000000 11.692999
            }
         }
      }
   }
}
MOTION
Frames: 27
Frame Time: 0.016670
15.756027 41.586012 -25.302600 -2.275989 127.234034 4.239647 0.298472 -8.028319 -35.737049 17.683273 -11.968131 18.214146 11.455946 -3.495725 26.593406 -49.085226 -6.555587 50.199677 -48.867965 7.085118 45.936591 7.440973 -64.290802 -21.373305 32.608522 -61.836373 -8.978810 -1.709425 -60.942950 -21.270831 -9.248185 -62.666876 12.380195 26.953028 -49.444644 -13.996105 -0.939230 -51.958622 -3.464606
15.745306 41.582507 -25.344629 -2.605375 128.390645 4.051541 0.130093 -9.270536 -36.068580 16.820927 -15.598496 19.220145 9.740070 -3.276402 27.863045 -52.982327 -10.157649 51.190758 -54.132941 6.288076 41.693995 8.005311 -64.486357 -22.205427 32.801721 -62.041149 -10.061752 -1.544361 -61.559716 -21.183444 -11.610720 -63.920216 15.155734 29.770486 -48.429852 -16.161199 -1.051712 -52.771824 -3.630015
15.733347 41.576275 -25.378880 -2.714685 128.491144 4.058330 0.069392 -9.269845 -36.512494 15.626332 -19.075392 20.346210 8.048017 -3.029251 29.163350 -57.443598 -13.460830 52.625757 -58.686584 4.870041 36.991123 8.010185 -64.348045 -22.356157 32.849006 -62.088312 -10.246343 -1.511667 -61.701053 -21.154670 -12.247326 -64.687089 15.679024 29.849358 -48.107696 -15.944592 -1.093734 -52.431049 -3.678651
15.718964 41.571817 -25.412867 -2.822813 128.545663 4.065808 0.005302 -9.187203 -36.919058 14.238577 -22.468570 21.601016 6.294263 -2.722891 30.348262 -62.186782 -16.585040 54.312138 -62.569150 3.092858 32.144277 7.994760 -64.207869 -22.480477 32.888215 -62.115243 -10.415664 -1.473985 -61.810794 -21.117429 -12.781188 -65.410160 16.063104 29.704800 -47.857199 -15.566373 -1.111238 -52.012608 -3.692259
15.688389 41.560940 -25.435495 -2.914560 128.537494 4.125744 -0.002006 -9.021421 -37.317387 12.690958 -25.756018 22.857641 4.460152 -2.351041 31.412822 -67.089499 -19.409979 56.162603 -65.817342 1.196670 27.416842 8.037514 -64.017799 -22.691967 32.997648 -62.136464 -10.572863 -1.450304 -61.947418 -21.097696 -13.264563 -66.153162 16.379256 29.650527 -47.549202 -15.179751 -1.174199 -51.573457 -3.762026
15.685655 41.559352 -25.465757 -2.970356 128.667486 4.132080 -0.004785 -8.965472 -37.652487 10.966281 -28.937688 24.265825 2.502186 -1.911580 32.283596 -72.046700 -21.854691 58.196921 -68.425238 -0.665942 22.814381 8.021152 -64.026139 -22.748787 33.122125 -62.131526 -10.749296 -1.440766 -62.070819 -21.092662 -14.024698 -66.746002 17.085063 29.775619 -47.293278 -14.991200 -1.180588 -51.315109 -3.767233
15.667532 41.552424 -25.486593 -3.037859 128.775198 4.149445 -0.063853 -8.795265 -37.923990 9.213982 -32.019179 25.642750 0.451067 -1.401027 32.988034 -76.830824 -23.914304 60.304806 -70.638185 -2.273404 18.441528 8.041510 -63.924587 -22.879559 33.189665 -62.153779 -10.922652 -1.416697 -62.201112 -21.072995 -14.637830 -67.354715 17.595090 29.687100 -47.060126 -14.603897 -1.200877 -50.942010 -3.783413
15.655395 41.545605 -25.504713 -3.066111 128.901283 4.170592 -0.098683 -8.616259 -38.160059 7.351291 -34.981992 26.975677 -1.610136 -0.868824 33.551815 -81.478105 -25.599387 62.447504 -72.657660 -3.556985 14.281135 8.069723 -63.908475 -22.967141 33.308965 -62.141348 -11.113316 -1.403862 -62.326603 -21.065485 -15.482710 -67.890441 18.391408 29.924770 -46.796614 -14.430400 -1.245069 -50.736745 -3.842010
15.671296 41.528153 -25.528125 -3.016401 128.848992 4.174144 -0.168100 -8.177802 -38.233712 5.511701 -37.794510 28.270974 -3.731483 -0.285352 33.925956 -85.916465 -27.015348 64.544898 -74.882369 -4.449600 10.340243 7.914079 -64.014391 -22.739798 33.443956 -62.023042 -11.125491 -1.495668 -62.299897 -21.145156 -16.370362 -68.240195 19.288941 30.075109 -46.530896 -14.195209 -1.278634 -50.473063 -3.878804
15.651601 41.525168 -25.533416 -2.998394 129.027656 4.248155 -0.269767 -7.939671 -38.365296 3.637047 -40.454329 29.532908 -5.750224 0.271628 34.109674 -90.097312 -28.132759 66.610211 -77.190345 -5.034417 6.330794 8.020790 -63.939505 -22.904519 33.552550 -62.082349 -11.352008 -1.474793 -62.500431 -21.143839 -17.231621 -68.759303 20.127125 30.293583 -46.295442 -13.960826 -1.313207 -50.265971 -3.915298
15.629239 41.522540 -25.535366 -2.950451 129.165216 4.355987 -0.366617 -7.609241 -38.469275 1.740865 -42.965524 30.760884 -7.682307 0.794721 34.082753 -94.024541 -28.966942 68.532943 -79.669403 -5.349460 2.129307 8.003145 -63.546475 -23.080927 33.305720 -62.439547 -11.279105 -1.429301 -62.747958 -21.119602 -18.159310 -69.197951 21.041064 30.616685 -46.030328 -13.700666 -1.366455 -50.058050 -3.969057
15.610494 41.512737 -25.534138 -2.917005 129.302516 4.440995 -0.518126 -7.280170 -38.560086 -0.107204 -45.315798 32.002906 -9.500304 1.283382 33.961534 -97.663174 -29.549246 70.361638 -82.364671 -5.469738 -2.374201 8.199226 -63.719320 -23.219050 33.706174 -62.239115 -11.612103 -1.486216 -62.871147 -21.190080 -19.225270 -69.581931 22.092547 31.090324 -45.754180 -13.530157 -1.456655 -49.930144 -4.072764
15.604394 41.509632 -25.527758 -2.854201 129.483257 4.520036 -0.703195 -6.953378 -38.602761 -1.934288 -47.423742 33.289061 -11.187318 1.735426 33.745967 -101.214265 -29.884496 72.138498 -85.098720 -5.481958 -7.089899 8.314414 -63.700427 -23.315346 33.843509 -62.236267 -11.779388 -1.521074 -63.020817 -21.239276 -20.488679 -69.785812 23.413448 31.771619 -45.474194 -13.446681 -1.527973 -49.893429 -4.146540
15.600983 41.505374 -25.517358 -2.806634 129.685539 4.560636 -0.933253 -6.563939 -38.531809 -3.607618 -49.520733 34.286529 -12.863886 2.252402 33.743228 -104.980759 -30.029750 73.977383 -87.797273 -5.469122 -11.606837 8.372314 -63.785730 -23.336231 34.052086 -62.162084 -11.907841 -1.569055 -63.115285 -21.294621 -21.976093 -69.902260 24.971890 32.704298 -45.166665 -13.496008 -1.624944 -49.973069 -4.257356
15.594284 41.498203 -25.492956 -2.750399 129.840967 4.619326 -1.177040 -6.108782 -38.491514 -5.066967 -51.498223 35.084465 -14.557020 2.908451 34.029485 -109.232408 -29.918172 75.745507 -90.293093 -5.451977 -15.817234 8.521188 -64.032183 -23.354338 34.496458 -61.896773 -12.138093 -1.650139 -63.163738 -21.380082 -23.513517 -70.013428 26.569014 33.568266 -44.829270 -13.376574 -1.718092 -49.962069 -4.345705
15.580454 41.499700 -25.443296 -2.654795 130.008594 4.739841 -1.413209 -5.631009 -38.464429 -6.375789 -53.310658 35.765179 -16.200913 3.672013 34.534741 -113.816804 -29.727015 77.370382 -92.440190 -5.420138 -19.799620 8.813919 -64.029356 -23.511422 34.785703 -61.754110 -12.422310 -1.701024 -63.278752 -21.448136 -25.103413 -70.265346 28.236311 34.431916 -44.453012 -13.184071 -1.794632 -49.911799 -4.403600
15.581425 41.508917 -25.387344 -2.503121 129.937259 4.843814 -1.668184 -5.045473 -38.333518 -7.473701 -54.981315 36.448359 -17.813086 4.524068 35.001844 -118.554407 -29.679160 78.937965 -94.345246 -5.435041 -23.586417 8.969399 -64.052223 -23.462236 35.038515 -61.577605 -12.509980 -1.779701 -63.283820 -21.522073 -26.722891 -70.564365 29.962995 35.044939 -44.016560 -12.833469 -1.796883 -49.700111 -4.348475
15.561056 41.524982 -25.306866 -2.350525 129.695498 4.994165 -1.972900 -4.452558 -38.352820 -8.405608 -56.370825 37.276072 -19.429050 5.498165 35.568490 -123.285857 -29.704373 80.477899 -96.098829 -5.567158 -27.309555 9.156443 -63.961306 -23.434427 35.291229 -61.383354 -12.577247 -1.828146 -63.240066 -21.560479 -28.204315 -71.174635 31.463939 35.177291 -43.517946 -12.108405 -1.770033 -49.215905 -4.236899
15.566274 41.545777 -25.228712 -2.154893 129.189955 5.073946 -2.289561 -3.773649 -38.211183 -9.297510 -57.594389 38.174894 -20.849479 6.476649 36.298962 -127.960466 -29.922891 82.149158 -97.672559 -5.837170 -30.893523 9.082382 -64.039990 -23.026852 35.575775 -61.059022 -12.393620 -1.914061 -62.980846 -21.601505 -29.697700 -71.739191 32.961841 35.001458 -42.990645 -11.189559 -1.724852 -48.614858 -4.098074
15.568602 41.586718 -25.137133 -1.960875 128.617243 5.135737 -2.571576 -3.283060 -38.052425 -10.160595 -58.609532 39.130246 -22.191928 7.518991 37.084908 -132.512814 -30.457777 84.035861 -99.138160 -6.312127 -34.231788 9.032404 -64.217350 -22.575683 35.931149 -60.640755 -12.260918 -1.973153 -62.659930 -21.605828 -31.135530 -72.415496 34.372391 34.454900 -42.437605 -10.060848 -1.620041 -47.898218 -3.878417
15.564807 41.637081 -25.039749 -1.782522 127.706847 5.149730 -2.845928 -2.688603 -37.872296 -10.967110 -59.473900 40.084618 -23.504785 8.665785 37.900129 -136.932835 -31.266577 86.250358 -100.507784 -7.014648 -37.245602 8.901826 -64.562541 -21.931965 36.434080 -59.963453 -12.085320 -2.054428 -62.122059 -21.597487 -32.496828 -73.203488 35.576058 33.419094 -41.769031 -8.547939 -1.553814 -46.945690 -3.691081
15.586822 41.688785 -24.949453 -1.554567 126.555496 5.111009 -3.029582 -2.039146 -37.663555 -11.779888 -60.133429 41.048122 -24.717587 9.865705 38.701003 -141.119467 -32.117838 88.806400 -101.639212 -7.839787 -40.038142 8.482555 -65.280127 -20.835412 37.106102 -59.036972 -11.710785 -2.200660 -61.324526 -21.615722 -33.901869 -73.905099 36.862627 32.367703 -41.026009 -7.140050 -1.509896 -46.011945 -3.533545
15.652700 41.737785 -24.897151 -1.349032 125.153736 4.856048 -3.224489 -1.312556 -37.274938 -12.522876 -60.743454 41.915717 -25.926150 11.235753 39.525383 -145.022073 -32.987608 91.854228 -102.535742 -8.765596 -42.540491 7.281318 -66.488791 -18.875661 37.734524 -57.938015 -10.829222 -2.396671 -60.159015 -21.617269 -35.525214 -74.222040 38.384406 31.508134 -40.234681 -6.001028 -1.476595 -45.152980 -3.381139
15.762275 41.771955 -24.852843 -1.124104 123.686270 4.478476 -3.373820 -0.631785 -36.747794 -13.250928 -61.215905 42.775583 -26.935993 12.650992 40.250585 -148.578799 -33.672829 95.382731 -103.108761 -9.673842 -44.799067 5.330514 -68.513259 -15.963211 38.756409 -56.418985 -9.688313 -2.740348 -58.644182 -21.717654 -37.380580 -74.198421 40.237881 31.024143 -39.460117 -5.185573 -1.459961 -44.447207 -3.265954
15.918489 41.776161 -24.822585 -0.897929 122.332417 3.949825 -3.508590 -0.234255 -36.061722 -13.772914 -61.680133 43.612134 -27.896849 14.224939 40.650458 -151.771571 -34.182061 99.360285 -103.337238 -10.491902 -46.798110 1.789914 -71.853228 -11.220642 40.397810 -54.304696 -8.200868 -3.278403 -56.644999 -21.939881 -39.549025 -73.698335 42.513396 30.956029 -38.756594 -4.642707 -1.491735 -43.908472 -3.209974
16.100102 41.731109 -24.824092 -0.698394 120.843299 3.309723 -3.478284 0.075089 -35.189773 -14.321077 -61.999854 44.370306 -28.789121 15.855029 40.728852 -154.609856 -34.723671 103.522602 -103.232360 -11.175852 -48.637220 -5.523016 -75.116651 -2.921623 42.319565 -52.228233 -6.112801 -3.884869 -54.628813 -22.237484 -42.093284 -72.820827 45.059332 31.399093 -38.091511 -4.127371 -1.659586 -43.482354 -3.339922
16.324597 41.615443 -24.859528 -0.515685 119.326519 2.606891 -3.341968 0.383571 -34.125910 -14.899361 -62.285813 45.011841 -29.637174 17.574790 40.629910 -157.162270 -35.210387 107.727888 -102.619740 -11.446969 -50.181830 -16.521980 -74.347538 8.872791 47.195473 -50.848337 -7.061008 -4.205485 -54.331693 -22.670846 -44.976997 -71.626131 47.859679 32.168009 -37.400326 -3.452162 -1.980945 -43.054473 -3.680352
